<svg width="16" height="16" viewBox="0 0 16 16" fill="none" xmlns="http://www.w3.org/2000/svg">
<path fill-rule="evenodd" clip-rule="evenodd" d="M11.3741 5.47351L8.52377 7.0183L9.11154 10.3083L12.2204 10.7907L13.6576 7.79947L11.3741 5.47351Z" fill="#454545"/>
<path fill-rule="evenodd" clip-rule="evenodd" d="M7.96808 1.26576L11.0907 2.42178L12.7478 2.07316L11.0907 0.624399L8.14802 0.15387L7.96808 1.26576Z" fill="#454545"/>
<path fill-rule="evenodd" clip-rule="evenodd" d="M13.887 13.417L14.3557 12.5182L12.7478 13.0802L10.1875 14.9874L10.5832 15.5738C11.8606 15.1382 12.9925 14.3886 13.887 13.417Z" fill="#454545"/>
<path fill-rule="evenodd" clip-rule="evenodd" d="M3.5694 11.1623L6.51551 12.5182L7.13794 14.5873L4.46941 14.7894L2.18872 12.5182L3.5694 11.1623Z" fill="#454545"/>
<path fill-rule="evenodd" clip-rule="evenodd" d="M1.21045 6.07817L2.95244 7.82948L5.46407 5.84073L5.16365 2.85608L2.59986 3.09933L1.21045 6.07817Z" fill="#454545"/>
<path opacity="0.377255" fill-rule="evenodd" clip-rule="evenodd" d="M16 8C16 12.4183 12.4183 16 8.00001 16C4.66104 16 1.79983 13.9544 0.601196 11.0481L2.1887 12.5182L3.56938 11.1623L6.51549 12.5182L9.1115 10.3083L8.52374 7.0183L11.3741 5.47352L11.0907 2.4218L12.7478 2.07318L11.0907 0.62442L11.1133 0.628388C13.985 1.84269 16 4.68603 16 8Z" fill="black"/>
<path fill-rule="evenodd" clip-rule="evenodd" d="M15.0416 4.19998L15.3414 7.2411L15.9023 9.25376C15.966 8.84946 15.9993 8.43511 16 8.01309V7.9869C15.9978 6.61645 15.651 5.32681 15.0416 4.19998Z" fill="#454545"/>
<path opacity="0.278088" fill-rule="evenodd" clip-rule="evenodd" d="M16 7.99999C16 12.4183 12.4183 16 8 16C6.67142 16 5.41848 15.6761 4.31583 15.103L4.46943 14.7894L7.13797 14.5873L10.1875 14.9874L12.7478 13.0802L12.2204 10.7907L13.6576 7.79946L15.3415 7.24109L15.0417 4.20004C15.653 5.33044 16 6.62468 16 7.99999Z" fill="black"/>
<path opacity="0.387951" fill-rule="evenodd" clip-rule="evenodd" d="M7.55526 0.012146L8.14804 0.153872L7.96841 1.25706L5.16367 2.85605L2.59988 3.0993L1.21047 6.07814L0.0319824 7.27984C0.383059 3.34484 3.5833 0.229789 7.55526 0.012146Z" fill="white"/>
</svg>
