<svg width="86" height="13" viewBox="0 0 86 13" fill="none" xmlns="http://www.w3.org/2000/svg">
<path d="M0.5 3C0.5 3.27614 0.723858 3.5 1 3.5C0.723858 3.5 0.5 3.72386 0.5 4V6C0.5 6.27614 0.723858 6.5 1 6.5C0.723858 6.5 0.5 6.72386 0.5 7V9C0.5 9.27614 0.723858 9.5 1 9.5C0.723858 9.5 0.5 9.72386 0.5 10V12C0.5 12.2761 0.723858 12.5 1 12.5H85C85.2761 12.5 85.5 12.2761 85.5 12V10C85.5 9.72386 85.2761 9.5 85 9.5C85.2761 9.5 85.5 9.27614 85.5 9V7C85.5 6.72386 85.2761 6.5 85 6.5C85.2761 6.5 85.5 6.27614 85.5 6V4C85.5 3.72386 85.2761 3.5 85 3.5C85.2761 3.5 85.5 3.27614 85.5 3V1C85.5 0.723858 85.2761 0.5 85 0.5H1C0.723858 0.5 0.5 0.723858 0.5 1V3Z" stroke="white" stroke-linejoin="round"/>
</svg>
