<svg width="18" height="25" viewBox="0 0 18 25" fill="none" xmlns="http://www.w3.org/2000/svg">
<path d="M2 14.5C1.75558 14.5 1.54699 14.6767 1.5068 14.9178L0.506803 20.9178C0.48264 21.0628 0.523488 21.211 0.61849 21.3232C0.713492 21.4353 0.853024 21.5 1 21.5H17C17.147 21.5 17.2865 21.4353 17.3815 21.3232C17.4765 21.211 17.5174 21.0628 17.4932 20.9178L16.4932 14.9178C16.453 14.6767 16.2444 14.5 16 14.5H2Z" stroke="white" stroke-linejoin="round"/>
<path d="M9.46663 0.820395C9.39233 0.627359 9.20684 0.5 9 0.5C8.79316 0.5 8.60767 0.627359 8.53337 0.820395L1.60517 18.8204C1.54599 18.9742 1.56635 19.1472 1.65961 19.283C1.75286 19.4188 1.90704 19.5 2.0718 19.5H15.9282C16.093 19.5 16.2471 19.4188 16.3404 19.283C16.4337 19.1472 16.454 18.9742 16.3948 18.8204L9.46663 0.820395Z" stroke="white" stroke-linejoin="round"/>
</svg>
