<svg width="38" height="22" viewBox="0 0 38 22" fill="none" xmlns="http://www.w3.org/2000/svg">
<mask id="path-1-outside-1_46_317" maskUnits="userSpaceOnUse" x="0" y="0" width="38" height="22" fill="black">
<rect fill="white" width="38" height="22"/>
<path fill-rule="evenodd" clip-rule="evenodd" d="M37 19H35C35 13.4445 32.1686 8.55039 27.8702 5.68183L19.0263 21L10.1677 5.65658C5.84804 8.52161 3 13.4282 3 19H1C1 9.05887 9.05887 1 19 1C19.0087 1 19.0175 1.00001 19.0262 1.00002L19.0263 1L19.0263 1.00002C28.9553 1.01423 37 9.06765 37 19Z"/>
</mask>
<path d="M35 19H34C34 19.5523 34.4477 20 35 20V19ZM37 19V20C37.5523 20 38 19.5523 38 19H37ZM27.8702 5.68183L28.4253 4.85004C28.1953 4.69657 27.9121 4.64516 27.6429 4.70802C27.3736 4.77088 27.1424 4.9424 27.0042 5.18183L27.8702 5.68183ZM19.0263 21L18.1602 21.5C18.3389 21.8094 18.669 22 19.0263 22C19.3835 22 19.7137 21.8094 19.8923 21.5L19.0263 21ZM10.1677 5.65658L11.0338 5.15658C10.8958 4.91757 10.6651 4.74622 10.3965 4.68309C10.1278 4.61996 9.84501 4.67067 9.61502 4.82321L10.1677 5.65658ZM3 19V20C3.55228 20 4 19.5523 4 19H3ZM1 19H0C0 19.5523 0.447715 20 1 20L1 19ZM19.0262 1.00002L19.0248 2.00002C19.1416 2.00018 19.2576 1.97988 19.3674 1.94002L19.0262 1.00002ZM19.0263 1L19.3698 0.0608521C19.1488 -0.0199887 18.9063 -0.0202919 18.6851 0.0599958L19.0263 1ZM19.0263 1.00002L18.6828 1.93917C18.7924 1.97926 18.9082 1.99985 19.0249 2.00002L19.0263 1.00002ZM35 20H37V18H35V20ZM27.3151 6.51362C31.3474 9.20458 34 13.7927 34 19H36C36 13.0964 32.9899 7.89621 28.4253 4.85004L27.3151 6.51362ZM27.0042 5.18183L18.1602 20.5L19.8923 21.5L28.7362 6.18183L27.0042 5.18183ZM19.8923 20.5L11.0338 5.15658L9.30172 6.15658L18.1602 21.5L19.8923 20.5ZM4 19C4 13.7774 6.66821 9.17759 10.7205 6.48994L9.61502 4.82321C5.02786 7.86563 2 13.079 2 19H4ZM1 20H3V18H1V20ZM19 0C8.50659 0 0 8.50659 0 19H2C2 9.61116 9.61116 2 19 2V0ZM19.0276 1.97291e-05C19.0184 6.55651e-06 19.0092 0 19 0V2C19.0083 2 19.0165 2.00001 19.0248 2.00002L19.0276 1.97291e-05ZM19.3674 1.94002L19.3674 1.94L18.6851 0.0599958L18.6851 0.0600145L19.3674 1.94002ZM18.6828 1.93915L18.6828 1.93917L19.3698 0.0608709L19.3698 0.0608521L18.6828 1.93915ZM38 19C38 8.51584 29.5084 0.0150205 19.0278 1.98483e-05L19.0249 2.00002C28.4023 2.01344 36 9.61946 36 19H38Z" fill="white" mask="url(#path-1-outside-1_46_317)"/>
</svg>
