<svg width="65" height="15" viewBox="0 0 65 15" fill="none" xmlns="http://www.w3.org/2000/svg">
<path d="M8 0.5C7.72386 0.5 7.5 0.723858 7.5 1V5.5H1C0.723858 5.5 0.5 5.72386 0.5 6V9C0.5 9.27614 0.723858 9.5 1 9.5H7.5V14C7.5 14.2761 7.72386 14.5 8 14.5H9C9.27614 14.5 9.5 14.2761 9.5 14V9.5H55.5V14C55.5 14.2761 55.7239 14.5 56 14.5H57C57.2761 14.5 57.5 14.2761 57.5 14V9.5H64C64.2761 9.5 64.5 9.27614 64.5 9V6C64.5 5.72386 64.2761 5.5 64 5.5H57.5V1C57.5 0.723858 57.2761 0.5 57 0.5H56C55.7239 0.5 55.5 0.723858 55.5 1V5.5H9.5V1C9.5 0.723858 9.27614 0.5 9 0.5H8Z" stroke="white" stroke-linejoin="round"/>
</svg>
