<svg width="875" height="658" viewBox="0 0 875 658" fill="none" xmlns="http://www.w3.org/2000/svg">
<path fill-rule="evenodd" clip-rule="evenodd" d="M84.7623 329C84.7632 329.526 84.6604 330.047 84.4598 330.533C84.2591 331.019 83.9647 331.461 83.5931 331.833C83.2216 332.205 82.7804 332.5 82.2946 332.702C81.8089 332.903 81.2882 333.007 80.7623 333.007C80.2365 333.007 79.7157 332.903 79.23 332.702C78.7443 332.5 78.303 332.205 77.9315 331.833C77.56 331.461 77.2655 331.019 77.0648 330.533C76.8642 330.047 76.7614 329.526 76.7623 329C76.7614 328.474 76.8642 327.953 77.0648 327.467C77.2655 326.981 77.56 326.539 77.9315 326.167C78.303 325.795 78.7443 325.5 79.23 325.298C79.7157 325.097 80.2365 324.993 80.7623 324.993C81.2882 324.993 81.8089 325.097 82.2946 325.298C82.7804 325.5 83.2216 325.795 83.5931 326.167C83.9647 326.539 84.2591 326.981 84.4598 327.467C84.6604 327.953 84.7632 328.474 84.7623 329Z" fill="white"/>
<path d="M1.11938 476.441H122.286V184.894H1.83471" stroke="white" stroke-width="3.00523"/>
<path d="M2.05994 261.545H44.2665L42.8977 395.684H0.465942" stroke="white" stroke-width="3.00523"/>
<path d="M122.061 381.343C160.386 359.1 158.854 298.992 121.898 277.091" stroke="white" stroke-width="3.00523"/>
<path d="M1.89197 12.7924C1.89197 12.7924 9.98578 10.8618 11.9906 2.39668" stroke="white" stroke-width="3.00523"/>
<path d="M11.3496 656.938C11.3496 656.938 9.41898 648.845 0.953918 646.84" stroke="white" stroke-width="3.00523"/>
<path d="M873.009 646.053C873.009 646.053 864.915 647.984 862.91 656.449" stroke="white" stroke-width="3.00523"/>
<path fill-rule="evenodd" clip-rule="evenodd" d="M1.57922 656.434V2.16348L872.115 3.53224L873.484 656.434H1.57922Z" stroke="white" stroke-width="3.00523"/>
<path fill-rule="evenodd" clip-rule="evenodd" d="M501.483 329C501.483 346.632 494.479 363.543 482.011 376.011C469.543 388.479 452.632 395.483 435 395.483C417.368 395.483 400.457 388.479 387.989 376.011C375.521 363.543 368.517 346.632 368.517 329C368.517 311.368 375.521 294.457 387.989 281.989C400.457 269.521 417.368 262.517 435 262.517C452.632 262.517 469.543 269.521 482.011 281.989C494.479 294.457 501.483 311.368 501.483 329Z" stroke="white" stroke-width="3.03363" stroke-linejoin="round"/>
<path d="M873.026 476.605L754.146 476.441V184.894H872.474" stroke="white" stroke-width="3.00523"/>
<path d="M873.228 261.545H832.165L833.534 395.684L873.025 395.684" stroke="white" stroke-width="3.00523"/>
<path d="M753.881 381.343C715.555 359.1 717.088 299.808 754.044 277.908" stroke="white" stroke-width="3.00523"/>
<path d="M435 2.16348V655.065" stroke="white" stroke-width="3.00523"/>
<path d="M860.801 4.02975C860.801 4.02975 862.732 12.1236 871.197 14.1284" stroke="white" stroke-width="3.00523"/>
<path fill-rule="evenodd" clip-rule="evenodd" d="M800.201 329C800.201 330.061 799.779 331.078 799.029 331.828C798.279 332.579 797.262 333 796.201 333C795.14 333 794.123 332.579 793.373 331.828C792.622 331.078 792.201 330.061 792.201 329C792.201 327.939 792.622 326.922 793.373 326.172C794.123 325.421 795.14 325 796.201 325C797.262 325 798.279 325.421 799.029 326.172C799.779 326.922 800.201 327.939 800.201 329Z" fill="white"/>
<path fill-rule="evenodd" clip-rule="evenodd" d="M439 329C439.001 329.526 438.898 330.047 438.697 330.533C438.497 331.019 438.202 331.461 437.831 331.833C437.459 332.205 437.018 332.5 436.532 332.701C436.047 332.903 435.526 333.007 435 333.007C434.474 333.007 433.954 332.903 433.468 332.701C432.982 332.5 432.541 332.205 432.169 331.833C431.798 331.461 431.503 331.019 431.303 330.533C431.102 330.047 430.999 329.526 431 329C430.999 328.474 431.102 327.953 431.303 327.467C431.503 326.981 431.798 326.54 432.169 326.167C432.541 325.795 432.982 325.5 433.468 325.299C433.954 325.097 434.474 324.994 435 324.994C435.526 324.994 436.047 325.097 436.532 325.299C437.018 325.5 437.459 325.795 437.831 326.167C438.202 326.54 438.497 326.981 438.697 327.467C438.898 327.953 439.001 328.474 439 329Z" fill="white"/>
</svg>
