<svg width="658" height="438" viewBox="0 0 658 438" fill="none" xmlns="http://www.w3.org/2000/svg">
<path fill-rule="evenodd" clip-rule="evenodd" d="M328.741 352.574C329.267 352.573 329.787 352.676 330.273 352.876C330.76 353.077 331.201 353.371 331.573 353.743C331.946 354.114 332.241 354.556 332.442 355.041C332.644 355.527 332.747 356.048 332.747 356.574C332.747 357.1 332.644 357.62 332.442 358.106C332.241 358.592 331.946 359.033 331.573 359.404C331.201 359.776 330.76 360.071 330.273 360.271C329.787 360.472 329.267 360.575 328.741 360.574C328.215 360.575 327.694 360.472 327.208 360.271C326.722 360.071 326.28 359.776 325.908 359.404C325.536 359.033 325.24 358.592 325.039 358.106C324.838 357.62 324.734 357.1 324.734 356.574C324.734 356.048 324.838 355.527 325.039 355.041C325.24 354.556 325.536 354.114 325.908 353.743C326.28 353.371 326.722 353.077 327.208 352.876C327.694 352.676 328.215 352.573 328.741 352.574Z" fill="white"/>
<path d="M476.182 436.217V315.05H184.635V435.501" stroke="white" stroke-width="3.00523"/>
<path d="M261.286 435.276V393.069L395.425 394.438V436.87" stroke="white" stroke-width="3.00523"/>
<path d="M381.084 315.275C358.841 276.949 298.732 278.482 276.832 315.438" stroke="white" stroke-width="3.00523"/>
<path d="M12.533 435.444C12.533 435.444 10.6024 427.35 2.13733 425.345" stroke="white" stroke-width="3.00523"/>
<path d="M656.679 425.986C656.679 425.986 648.585 427.917 646.58 436.382" stroke="white" stroke-width="3.00523"/>
<path d="M1.90417 2.33591L654.806 2.33591" stroke="white" stroke-width="3.00523"/>
<path fill-rule="evenodd" clip-rule="evenodd" d="M1.08458 1.33594L0.401536 435.754L0.39917 437.259H1.90415L656.175 437.259H657.677V435.757V1.33594H654.672V434.254L3.40912 434.254L4.08981 1.33594H1.08458Z" fill="white"/>
<path fill-rule="evenodd" clip-rule="evenodd" d="M260.748 1.33594C260.743 1.66899 260.741 2.00232 260.741 2.33591C260.741 20.3706 267.905 37.6667 280.657 50.4192C293.41 63.1717 310.706 70.3359 328.741 70.3359C346.775 70.3359 364.071 63.1717 376.824 50.4192C389.576 37.6667 396.741 20.3706 396.741 2.33591C396.741 2.00232 396.738 1.66899 396.733 1.33594H393.699C393.704 1.66898 393.707 2.00231 393.707 2.33591C393.707 19.5661 386.862 36.0905 374.679 48.2741C362.495 60.4576 345.971 67.3023 328.741 67.3023C311.511 67.3023 294.986 60.4576 282.803 48.2741C270.619 36.0905 263.774 19.5661 263.774 2.33591C263.774 2.00231 263.777 1.66898 263.782 1.33594H260.748Z" fill="white"/>
<path fill-rule="evenodd" clip-rule="evenodd" d="M324.861 1.33594C324.777 1.66185 324.734 1.99781 324.734 2.33591C324.734 2.86174 324.838 3.38242 325.039 3.86815C325.241 4.35387 325.536 4.79516 325.908 5.16668C326.28 5.53819 326.722 5.83262 327.208 6.03325C327.694 6.23389 328.215 6.33679 328.741 6.33593C329.266 6.33679 329.787 6.23389 330.273 6.03325C330.759 5.83262 331.201 5.53819 331.573 5.16668C331.945 4.79516 332.241 4.35387 332.442 3.86815C332.643 3.38242 332.747 2.86174 332.747 2.33591C332.747 1.99781 332.704 1.66185 332.62 1.33594L324.861 1.33594Z" fill="white"/>
</svg>
