<svg width="46" height="20" viewBox="0 0 46 20" fill="none" xmlns="http://www.w3.org/2000/svg">
<path d="M1 4.87498L1 18.6136L45.38 18.6136V4.87498M3.11333 18.6136L3.11333 4.87498M5.22667 4.87498L5.22667 18.6136M7.34 18.6136L7.34 4.87498M9.45333 4.87498V18.6136M11.5667 18.6136V4.87498M13.68 4.87498V18.6136M15.7933 18.6136V4.87498M17.9067 4.87498V18.6136M20.02 18.6136V4.87498M22.1333 4.87498V18.6136M24.2467 18.6136V4.87498M26.36 4.87498V18.6136M28.4733 18.6136V4.87498M30.5867 4.87498V18.6136M32.7 18.6136V4.87498M34.8133 4.87498V18.6136M36.9267 18.6136V4.87498M39.04 4.87498V18.6136M41.1533 18.6136V4.87498M43.2667 4.87498V18.6136M1 16.5L45.38 16.5M45.38 14.3863L1 14.3863M1 12.2727L45.38 12.2727M45.38 10.1591L1 10.1591M1 8.04543L45.38 8.04543M45.38 5.9318L1 5.9318" stroke="black"/>
<path d="M1 4.52274L1 1.00001L45.38 1.00001V4.52274L1 4.52274Z" fill="#C2C2C2" stroke="#C2C2C2"/>
</svg>
