<svg width="46" height="21" viewBox="0 0 46 21" fill="none" xmlns="http://www.w3.org/2000/svg">
<path fill-rule="evenodd" clip-rule="evenodd" d="M0 0V0.00845337V1.00845V4.04224V5.04224V8.07599V9.07599V12.1098V13.1098V16.1351H1V13.1098H4.03378V16.1351H5.03378V13.1098H8.06755V16.1351H9.06755V13.1098H12.1013V16.1351H13.1013V13.1098H16.1351V16.1351H17.1351V13.1098H20.1689V16.1351H21.1689V13.1098H24.2027V16.1351H25.2027V13.1098H28.2365V16.1351H29.2365V13.1098H32.2702V16.1351H33.2702V13.1098H36.304V16.1351H37.304V13.1098H40.3378V16.1351H41.3378V13.1098H44.3716V16.1351H45.3716V13.1098H45.38V12.1098H45.3716V9.07599H45.38V8.07599H45.3716V5.04224H45.38V4.04224H45.3716V1.00845H45.38V0.00845337H45.3716V0H44.3716V0.00845337H41.3378V0H40.3378V0.00845337H37.304V0H36.304V0.00845337H33.2702V0H32.2702V0.00845337H29.2365V0H28.2365V0.00845337H25.2027V0H24.2027V0.00845337H21.1689V0H20.1689V0.00845337H17.1351V0H16.1351V0.00845337H13.1013V0H12.1013V0.00845337H9.06755V0H8.06755V0.00845337H5.03378V0H4.03378V0.00845337H1V0H0ZM44.3716 12.1098V9.07599H41.3378V12.1098H44.3716ZM40.3378 12.1098V9.07599H37.304V12.1098H40.3378ZM36.304 12.1098V9.07599H33.2702V12.1098H36.304ZM32.2702 12.1098V9.07599H29.2365V12.1098H32.2702ZM28.2365 12.1098V9.07599H25.2027V12.1098H28.2365ZM24.2027 12.1098V9.07599H21.1689V12.1098H24.2027ZM20.1689 12.1098V9.07599H17.1351V12.1098H20.1689ZM16.1351 12.1098V9.07599H13.1013V12.1098H16.1351ZM12.1013 12.1098V9.07599H9.06755V12.1098H12.1013ZM8.06755 12.1098V9.07599H5.03378V12.1098H8.06755ZM4.03378 12.1098V9.07599H1V12.1098H4.03378ZM4.03378 8.07599H1V5.04224H4.03378V8.07599ZM8.06755 8.07599H5.03378V5.04224H8.06755V8.07599ZM12.1013 8.07599H9.06755V5.04224H12.1013V8.07599ZM16.1351 8.07599H13.1013V5.04224H16.1351V8.07599ZM20.1689 8.07599H17.1351V5.04224H20.1689V8.07599ZM24.2027 8.07599H21.1689V5.04224H24.2027V8.07599ZM28.2365 8.07599H25.2027V5.04224H28.2365V8.07599ZM32.2702 8.07599H29.2365V5.04224H32.2702V8.07599ZM36.304 8.07599H33.2702V5.04224H36.304V8.07599ZM40.3378 8.07599H37.304V5.04224H40.3378V8.07599ZM44.3716 8.07599H41.3378V5.04224H44.3716V8.07599ZM44.3716 4.04224V1.00845H41.3378V4.04224H44.3716ZM40.3378 4.04224V1.00845H37.304V4.04224H40.3378ZM36.304 4.04224V1.00845H33.2702V4.04224H36.304ZM32.2702 4.04224V1.00845H29.2365V4.04224H32.2702ZM28.2365 4.04224V1.00845H25.2027V4.04224H28.2365ZM24.2027 4.04224V1.00845H21.1689V4.04224H24.2027ZM20.1689 4.04224V1.00845H17.1351V4.04224H20.1689ZM16.1351 4.04224V1.00845H13.1013V4.04224H16.1351ZM12.1013 4.04224V1.00845H9.06755V4.04224H12.1013ZM8.06755 4.04224V1.00845H5.03378V4.04224H8.06755ZM4.03378 4.04224V1.00845H1V4.04224H4.03378Z" fill="#E2E2E2"/>
<path fill-rule="evenodd" clip-rule="evenodd" d="M1.52588e-05 16L45.38 16V20.52L1.52588e-05 20.52L1.52588e-05 16Z" fill="#C2C2C2"/>
</svg>
