<svg width="610" height="299" viewBox="0 0 610 299" fill="none" xmlns="http://www.w3.org/2000/svg">
<path d="M0.636353 83.76H11.2045M0.636353 223.24H11.2045M598.795 83.76H609.364M598.795 223.24H609.364M11.2045 46.4244C56.2954 46.4244 93.6364 83.76 93.6364 128.844V173.224C93.6364 218.309 56.2954 255.644 11.2045 255.644M598.795 46.4244C553.705 46.4244 516.364 83.76 516.364 128.844V173.224C516.364 218.309 553.705 255.644 598.795 255.644M164.091 0.635559V21.7689M234.545 0.635559V21.7689M375.455 0.635559V21.7689M445.909 0.635559V21.7689M305 11.2022V295.798" stroke="white" stroke-width="6"/>
<path d="M11.2045 11.2022V295.798H598.795V11.2022H11.2045Z" stroke="white" stroke-width="6"/>
<path d="M19.6591 11.2022C19.6591 15.8515 15.8545 19.6555 11.2045 19.6555M590.341 11.2022C590.341 15.8515 594.145 19.6555 598.795 19.6555M19.6591 295.798C19.6591 291.148 15.8545 287.344 11.2045 287.344M590.341 295.798C590.341 291.148 594.145 287.344 598.795 287.344" stroke="white" stroke-width="4"/>
<path d="M93.6363 155.613C95.971 155.613 97.8636 153.721 97.8636 151.387C97.8636 149.052 95.971 147.16 93.6363 147.16C91.3017 147.16 89.4091 149.052 89.4091 151.387C89.4091 153.721 91.3017 155.613 93.6363 155.613Z" fill="white"/>
<path d="M305 155.613C307.335 155.613 309.227 153.721 309.227 151.387C309.227 149.052 307.335 147.16 305 147.16C302.665 147.16 300.773 149.052 300.773 151.387C300.773 153.721 302.665 155.613 305 155.613Z" fill="white"/>
<path d="M516.364 155.613C518.698 155.613 520.591 153.721 520.591 151.387C520.591 149.052 518.698 147.16 516.364 147.16C514.029 147.16 512.136 149.052 512.136 151.387C512.136 153.721 514.029 155.613 516.364 155.613Z" fill="white"/>
<path d="M305 193.653C328.347 193.653 347.273 174.73 347.273 151.387C347.273 128.043 328.347 109.12 305 109.12C281.653 109.12 262.727 128.043 262.727 151.387C262.727 174.73 281.653 193.653 305 193.653Z" stroke="white" stroke-width="6"/>
<path d="M157.045 153.5C158.213 153.5 159.159 152.554 159.159 151.387C159.159 150.219 158.213 149.273 157.045 149.273C155.878 149.273 154.932 150.219 154.932 151.387C154.932 152.554 155.878 153.5 157.045 153.5Z" fill="white"/>
<path d="M452.955 153.5C454.122 153.5 455.068 152.554 455.068 151.387C455.068 150.219 454.122 149.273 452.955 149.273C451.787 149.273 450.841 150.219 450.841 151.387C450.841 152.554 451.787 153.5 452.955 153.5Z" fill="white"/>
<path d="M157.045 82.3511C157.824 82.3511 158.455 81.7203 158.455 80.9422C158.455 80.1641 157.824 79.5333 157.045 79.5333C156.267 79.5333 155.636 80.1641 155.636 80.9422C155.636 81.7203 156.267 82.3511 157.045 82.3511Z" fill="white"/>
<path d="M157.045 223.24C157.824 223.24 158.455 222.609 158.455 221.831C158.455 221.053 157.824 220.422 157.045 220.422C156.267 220.422 155.636 221.053 155.636 221.831C155.636 222.609 156.267 223.24 157.045 223.24Z" fill="white"/>
<path d="M452.955 82.3511C453.733 82.3511 454.364 81.7203 454.364 80.9422C454.364 80.1641 453.733 79.5333 452.955 79.5333C452.176 79.5333 451.545 80.1641 451.545 80.9422C451.545 81.7203 452.176 82.3511 452.955 82.3511Z" fill="white"/>
<path d="M452.955 223.24C453.733 223.24 454.364 222.609 454.364 221.831C454.364 221.053 453.733 220.422 452.955 220.422C452.176 220.422 451.545 221.053 451.545 221.831C451.545 222.609 452.176 223.24 452.955 223.24Z" fill="white"/>
</svg>
