<svg width="90" height="13" viewBox="0 0 90 13" fill="none" xmlns="http://www.w3.org/2000/svg">
<path d="M0.5 3C0.5 3.27614 0.723858 3.5 1 3.5H8.5L8.5 9.5H1C0.723858 9.5 0.5 9.72386 0.5 10V12C0.5 12.2761 0.723858 12.5 1 12.5H89C89.2761 12.5 89.5 12.2761 89.5 12V10C89.5 9.72386 89.2761 9.5 89 9.5H81.5V3.5H89C89.2761 3.5 89.5 3.27614 89.5 3V1C89.5 0.723858 89.2761 0.5 89 0.5H1C0.723858 0.5 0.5 0.723858 0.5 1V3ZM71.5 9.5V3.5H78.5V9.5H71.5ZM68.5 3.5V9.5H61.5V3.5H68.5ZM51.5 9.5V3.5H58.5V9.5H51.5ZM48.5 3.5V9.5H41.5V3.5H48.5ZM31.5 9.5V3.5H38.5V9.5H31.5ZM28.5 3.5V9.5H21.5V3.5H28.5ZM11.5 9.5L11.5 3.5H18.5V9.5H11.5Z" stroke="white" stroke-linejoin="round"/>
</svg>
