<svg width="57" height="19" viewBox="0 0 57 19" fill="none" xmlns="http://www.w3.org/2000/svg">
<path fill-rule="evenodd" clip-rule="evenodd" d="M0 3.97825V0.994561V0H0.994561H3.97825H4.97281H7.95649H8.95105H11.9347H12.9293H15.913H16.9075H19.8912H20.8858H23.8695H24.864H27.8477H28.8423H31.826H32.8205H35.8042H36.7988H39.7825H40.777H43.7607H44.7553H47.7389H48.7335H51.7172H52.7118H55.6954H56.69V0.994561V3.97825V4.97281V7.95649V8.95105V11.9347V12.9293V15.913H55.6954V12.9293H52.7118V15.913H51.7172V12.9293H48.7335V15.913H47.7389V12.9293H44.7553V15.913H43.7607V12.9293H40.777V15.913H39.7825V12.9293H36.7988V15.913H35.8042V12.9293H32.8205V15.913H31.826V12.9293H28.8423V15.913H27.8477V12.9293H24.864V15.913H23.8695V12.9293H20.8858V15.913H19.8912V12.9293H16.9075V15.913H15.913V12.9293H12.9293V15.913H11.9347V12.9293H8.95105V15.913H7.95649V12.9293H4.97281V15.913H3.97825V12.9293H0.994561V15.913H0V12.9293V11.9347V8.95105V7.95649V4.97281V3.97825ZM0.994561 11.9347H3.97825V8.95105H0.994561V11.9347ZM4.97281 11.9347H7.95649V8.95105H4.97281V11.9347ZM8.95105 11.9347H11.9347V8.95105H8.95105V11.9347ZM12.9293 11.9347H15.913V8.95105H12.9293V11.9347ZM16.9075 11.9347H19.8912V8.95105H16.9075V11.9347ZM20.8858 11.9347H23.8695V8.95105H20.8858V11.9347ZM24.864 11.9347H27.8477V8.95105H24.864V11.9347ZM28.8423 11.9347H31.826V8.95105H28.8423V11.9347ZM32.8205 11.9347H35.8042V8.95105H32.8205V11.9347ZM36.7988 11.9347H39.7825V8.95105H36.7988V11.9347ZM40.777 11.9347H43.7607V8.95105H40.777V11.9347ZM44.7553 11.9347H47.7389V8.95105H44.7553V11.9347ZM48.7335 11.9347H51.7172V8.95105H48.7335V11.9347ZM52.7118 11.9347H55.6954V8.95105H52.7118V11.9347ZM55.6954 4.97281V7.95649H52.7118V4.97281H55.6954ZM51.7172 4.97281V7.95649H48.7335V4.97281H51.7172ZM47.7389 4.97281V7.95649H44.7553V4.97281H47.7389ZM43.7607 4.97281V7.95649H40.777V4.97281H43.7607ZM39.7825 4.97281V7.95649H36.7988V4.97281H39.7825ZM35.8042 4.97281V7.95649H32.8205V4.97281H35.8042ZM31.826 4.97281V7.95649H28.8423V4.97281H31.826ZM27.8477 4.97281V7.95649H24.864V4.97281H27.8477ZM23.8695 4.97281V7.95649H20.8858V4.97281H23.8695ZM19.8912 4.97281V7.95649H16.9075V4.97281H19.8912ZM15.913 4.97281V7.95649H12.9293V4.97281H15.913ZM11.9347 4.97281V7.95649H8.95105V4.97281H11.9347ZM7.95649 4.97281V7.95649H4.97281V4.97281H7.95649ZM3.97825 4.97281V7.95649H0.994561V4.97281H3.97825ZM0.994561 3.97825H3.97825V0.994561H0.994561V3.97825ZM4.97281 3.97825H7.95649V0.994561H4.97281V3.97825ZM8.95105 3.97825H11.9347V0.994561H8.95105V3.97825ZM12.9293 3.97825H15.913V0.994561H12.9293V3.97825ZM16.9075 3.97825H19.8912V0.994561H16.9075V3.97825ZM20.8858 3.97825H23.8695V0.994561H20.8858V3.97825ZM24.864 3.97825H27.8477V0.994561H24.864V3.97825ZM28.8423 3.97825H31.826V0.994561H28.8423V3.97825ZM32.8205 3.97825H35.8042V0.994561H32.8205V3.97825ZM36.7988 3.97825H39.7825V0.994561H36.7988V3.97825ZM40.777 3.97825H43.7607V0.994561H40.777V3.97825ZM44.7553 3.97825H47.7389V0.994561H44.7553V3.97825ZM48.7335 3.97825H51.7172V0.994561H48.7335V3.97825ZM52.7118 3.97825H55.6954V0.994561H52.7118V3.97825Z" fill="#E2E2E2"/>
<path fill-rule="evenodd" clip-rule="evenodd" d="M0 15.8977L56.6971 15.8977V18.9029L0 18.9029L0 15.8977Z" fill="#C2C2C2"/>
</svg>
