<svg width="57" height="24" viewBox="0 0 57 24" fill="none" xmlns="http://www.w3.org/2000/svg">
<path d="M2 0L2 21.9003L55.3819 21.9003V0" stroke="#C2C2C2" stroke-width="3.00523"/>
<line x1="3.5" y1="0.5" x2="54" y2="0.5" stroke="black"/>
<line x1="3.5" y1="18.5" x2="54" y2="18.5" stroke="black"/>
<line x1="3.5" y1="15.5" x2="54" y2="15.5" stroke="black"/>
<line x1="3.5" y1="12.5" x2="54" y2="12.5" stroke="black"/>
<line x1="3.5" y1="9.5" x2="54" y2="9.5" stroke="black"/>
<line x1="3.5" y1="6.5" x2="54" y2="6.5" stroke="black"/>
<line x1="3.5" y1="3.5" x2="54" y2="3.5" stroke="black"/>
<line x1="4.5" y1="1" x2="4.5" y2="20.5" stroke="black"/>
<line x1="7.5" y1="1" x2="7.5" y2="20.5" stroke="black"/>
<line x1="10.5" y1="1" x2="10.5" y2="20.5" stroke="black"/>
<line x1="13.5" y1="1" x2="13.5" y2="20.5" stroke="black"/>
<line x1="16.5" y1="1" x2="16.5" y2="20.5" stroke="black"/>
<line x1="19.5" y1="1" x2="19.5" y2="20.5" stroke="black"/>
<line x1="22.5" y1="1" x2="22.5" y2="20.5" stroke="black"/>
<line x1="25.5" y1="1" x2="25.5" y2="20.5" stroke="black"/>
<line x1="28.75" y1="1" x2="28.75" y2="20.5" stroke="black"/>
<line x1="53" y1="1" x2="53" y2="20.5" stroke="black"/>
<line x1="50" y1="1" x2="50" y2="20.5" stroke="black"/>
<line x1="47" y1="1" x2="47" y2="20.5" stroke="black"/>
<line x1="44" y1="1" x2="44" y2="20.5" stroke="black"/>
<line x1="41" y1="1" x2="41" y2="20.5" stroke="black"/>
<line x1="38" y1="1" x2="38" y2="20.5" stroke="black"/>
<line x1="35" y1="1" x2="35" y2="20.5" stroke="black"/>
<line x1="32" y1="1" x2="32" y2="20.5" stroke="black"/>
</svg>
