<svg width="38" height="22" viewBox="0 0 38 22" fill="none" xmlns="http://www.w3.org/2000/svg">
<mask id="path-1-outside-1_46_300" maskUnits="userSpaceOnUse" x="0" y="0" width="38" height="22" fill="black">
<rect fill="white" width="38" height="22"/>
<path fill-rule="evenodd" clip-rule="evenodd" d="M37 19H35C35 13.1523 31.8629 8.03726 27.1798 5.2461C28.3265 6.87331 29 8.85801 29 11C29 16.5228 24.5228 21 19 21C13.4772 21 9 16.5228 9 11C9 8.85801 9.67346 6.87331 10.8202 5.2461C6.13711 8.03726 3 13.1523 3 19H1C1 9.05887 9.05887 1 19 1C28.9411 1 37 9.05887 37 19Z"/>
</mask>
<path d="M35 19H34C34 19.5523 34.4477 20 35 20V19ZM37 19V20C37.5523 20 38 19.5523 38 19H37ZM27.1798 5.2461L27.6918 4.3871C27.2863 4.14542 26.767 4.22022 26.4462 4.56652C26.1254 4.91282 26.0905 5.43629 26.3624 5.82215L27.1798 5.2461ZM10.8202 5.2461L11.6376 5.82215C11.9095 5.43629 11.8746 4.91282 11.5538 4.56652C11.233 4.22022 10.7137 4.14542 10.3082 4.3871L10.8202 5.2461ZM3 19V20C3.55228 20 4 19.5523 4 19H3ZM1 19H0C0 19.5523 0.447715 20 1 20L1 19ZM35 20H37V18H35V20ZM26.6678 6.1051C31.0608 8.72337 34 13.519 34 19H36C36 12.7856 32.6649 7.35114 27.6918 4.3871L26.6678 6.1051ZM26.3624 5.82215C27.3942 7.28628 28 9.07091 28 11H30C30 8.64512 29.2589 6.46034 27.9972 4.67005L26.3624 5.82215ZM28 11C28 15.9706 23.9706 20 19 20V22C25.0751 22 30 17.0751 30 11H28ZM19 20C14.0294 20 10 15.9706 10 11H8C8 17.0751 12.9249 22 19 22V20ZM10 11C10 9.07091 10.6058 7.28628 11.6376 5.82215L10.0028 4.67005C8.74112 6.46034 8 8.64512 8 11H10ZM4 19C4 13.519 6.93916 8.72337 11.3322 6.1051L10.3082 4.3871C5.33506 7.35114 2 12.7856 2 19H4ZM1 20H3V18H1V20ZM19 0C8.50659 0 0 8.50659 0 19H2C2 9.61116 9.61116 2 19 2V0ZM38 19C38 8.50659 29.4934 0 19 0V2C28.3888 2 36 9.61116 36 19H38Z" fill="white" mask="url(#path-1-outside-1_46_300)"/>
</svg>
