<svg width="32" height="35" viewBox="0 0 32 35" fill="none" xmlns="http://www.w3.org/2000/svg">
<path d="M24 35C28.4183 35 32 31.4183 32 27C32 22.5817 28.4183 19 24 19C19.5817 19 16 22.5817 16 27C16 31.4183 19.5817 35 24 35Z" fill="white"/>
<path fill-rule="evenodd" clip-rule="evenodd" d="M27.3741 24.4735L24.5238 26.0183L25.1115 29.3083L28.2204 29.7907L29.6576 26.7995L27.3741 24.4735Z" fill="#454545"/>
<path fill-rule="evenodd" clip-rule="evenodd" d="M23.9681 20.2658L27.0907 21.4218L28.7478 21.0732L27.0907 19.6244L24.148 19.1539L23.9681 20.2658Z" fill="#454545"/>
<path fill-rule="evenodd" clip-rule="evenodd" d="M29.887 32.417L30.3557 31.5182L28.7478 32.0802L26.1875 33.9874L26.5832 34.5738C27.8606 34.1382 28.9925 33.3886 29.887 32.417Z" fill="#454545"/>
<path fill-rule="evenodd" clip-rule="evenodd" d="M19.5694 30.1623L22.5155 31.5182L23.1379 33.5873L20.4694 33.7894L18.1887 31.5182L19.5694 30.1623Z" fill="#454545"/>
<path fill-rule="evenodd" clip-rule="evenodd" d="M17.2104 25.0782L18.9524 26.8295L21.4641 24.8407L21.1637 21.8561L18.5999 22.0993L17.2104 25.0782Z" fill="#454545"/>
<path opacity="0.377255" fill-rule="evenodd" clip-rule="evenodd" d="M32 27C32 31.4183 28.4183 35 24 35C20.661 35 17.7998 32.9544 16.6012 30.0481L18.1887 31.5182L19.5694 30.1623L22.5155 31.5182L25.1115 29.3083L24.5237 26.0183L27.3741 24.4735L27.0907 21.4218L28.7478 21.0732L27.0907 19.6244L27.1133 19.6284C29.985 20.8427 32 23.686 32 27Z" fill="black"/>
<path fill-rule="evenodd" clip-rule="evenodd" d="M31.0416 23.2L31.3414 26.2411L31.9023 28.2538C31.966 27.8495 31.9993 27.4351 32 27.0131V26.9869C31.9978 25.6164 31.651 24.3268 31.0416 23.2Z" fill="#454545"/>
<path opacity="0.278088" fill-rule="evenodd" clip-rule="evenodd" d="M32 27C32 31.4183 28.4183 35 24 35C22.6714 35 21.4185 34.6761 20.3158 34.103L20.4694 33.7894L23.138 33.5873L26.1875 33.9874L28.7478 32.0802L28.2204 29.7907L29.6576 26.7995L31.3415 26.2411L31.0417 23.2C31.653 24.3304 32 25.6247 32 27Z" fill="black"/>
<path opacity="0.387951" fill-rule="evenodd" clip-rule="evenodd" d="M23.5553 19.0121L24.148 19.1539L23.9684 20.2571L21.1637 21.8561L18.5999 22.0993L17.2105 25.0781L16.032 26.2798C16.3831 22.3448 19.5833 19.2298 23.5553 19.0121Z" fill="white"/>
<path d="M23 16C27.4183 16 31 12.4183 31 8C31 3.58172 27.4183 0 23 0C18.5817 0 15 3.58172 15 8C15 12.4183 18.5817 16 23 16Z" fill="white"/>
<path fill-rule="evenodd" clip-rule="evenodd" d="M26.3741 5.47351L23.5238 7.0183L24.1115 10.3083L27.2204 10.7907L28.6576 7.79947L26.3741 5.47351Z" fill="#454545"/>
<path fill-rule="evenodd" clip-rule="evenodd" d="M22.9681 1.26576L26.0907 2.42178L27.7478 2.07316L26.0907 0.624399L23.148 0.15387L22.9681 1.26576Z" fill="#454545"/>
<path fill-rule="evenodd" clip-rule="evenodd" d="M28.887 13.417L29.3557 12.5182L27.7478 13.0802L25.1875 14.9874L25.5832 15.5738C26.8606 15.1382 27.9925 14.3886 28.887 13.417Z" fill="#454545"/>
<path fill-rule="evenodd" clip-rule="evenodd" d="M18.5694 11.1623L21.5155 12.5182L22.1379 14.5873L19.4694 14.7894L17.1887 12.5182L18.5694 11.1623Z" fill="#454545"/>
<path fill-rule="evenodd" clip-rule="evenodd" d="M16.2104 6.07817L17.9524 7.82948L20.4641 5.84073L20.1637 2.85608L17.5999 3.09933L16.2104 6.07817Z" fill="#454545"/>
<path opacity="0.377255" fill-rule="evenodd" clip-rule="evenodd" d="M31 8C31 12.4183 27.4183 16 23 16C19.661 16 16.7998 13.9544 15.6012 11.0481L17.1887 12.5182L18.5694 11.1623L21.5155 12.5182L24.1115 10.3083L23.5237 7.0183L26.3741 5.47352L26.0907 2.42181L27.7478 2.07318L26.0907 0.62442L26.1133 0.628388C28.985 1.84269 31 4.68603 31 8Z" fill="black"/>
<path fill-rule="evenodd" clip-rule="evenodd" d="M30.0416 4.19998L30.3414 7.2411L30.9023 9.25376C30.966 8.84948 30.9993 8.43513 31 8.01313V7.98686C30.9978 6.61643 30.651 5.3268 30.0416 4.19998Z" fill="#454545"/>
<path opacity="0.278088" fill-rule="evenodd" clip-rule="evenodd" d="M31 7.99999C31 12.4183 27.4183 16 23 16C21.6714 16 20.4185 15.6761 19.3158 15.103L19.4694 14.7894L22.138 14.5873L25.1875 14.9874L27.7478 13.0802L27.2204 10.7907L28.6576 7.79946L30.3415 7.24109L30.0417 4.20004C30.653 5.33044 31 6.62469 31 7.99999Z" fill="black"/>
<path opacity="0.387951" fill-rule="evenodd" clip-rule="evenodd" d="M22.5553 0.012146L23.148 0.153872L22.9684 1.25706L20.1637 2.85605L17.5999 3.0993L16.2105 6.07814L15.032 7.27984C15.3831 3.34484 18.5833 0.229789 22.5553 0.012146Z" fill="white"/>
<path d="M8 28C12.4183 28 16 24.4183 16 20C16 15.5817 12.4183 12 8 12C3.58172 12 0 15.5817 0 20C0 24.4183 3.58172 28 8 28Z" fill="white"/>
<path fill-rule="evenodd" clip-rule="evenodd" d="M11.3741 17.4735L8.52377 19.0183L9.11154 22.3083L12.2204 22.7907L13.6576 19.7995L11.3741 17.4735Z" fill="#454545"/>
<path fill-rule="evenodd" clip-rule="evenodd" d="M7.96808 13.2658L11.0907 14.4218L12.7478 14.0732L11.0907 12.6244L8.14802 12.1539L7.96808 13.2658Z" fill="#454545"/>
<path fill-rule="evenodd" clip-rule="evenodd" d="M13.887 25.417L14.3557 24.5182L12.7478 25.0802L10.1875 26.9874L10.5832 27.5738C11.8606 27.1382 12.9925 26.3886 13.887 25.417Z" fill="#454545"/>
<path fill-rule="evenodd" clip-rule="evenodd" d="M3.5694 23.1623L6.51551 24.5182L7.13794 26.5873L4.46941 26.7894L2.18872 24.5182L3.5694 23.1623Z" fill="#454545"/>
<path fill-rule="evenodd" clip-rule="evenodd" d="M1.21045 18.0782L2.95244 19.8295L5.46407 17.8407L5.16365 14.8561L2.59986 15.0993L1.21045 18.0782Z" fill="#454545"/>
<path opacity="0.377255" fill-rule="evenodd" clip-rule="evenodd" d="M16 20C16 24.4183 12.4183 28 8.00001 28C4.66104 28 1.79983 25.9544 0.601196 23.0481L2.1887 24.5182L3.56938 23.1623L6.51549 24.5182L9.1115 22.3083L8.52374 19.0183L11.3741 17.4735L11.0907 14.4218L12.7478 14.0732L11.0907 12.6244L11.1133 12.6284C13.985 13.8427 16 16.686 16 20Z" fill="black"/>
<path fill-rule="evenodd" clip-rule="evenodd" d="M15.0416 16.2L15.3414 19.2411L15.9023 21.2538C15.966 20.8495 15.9993 20.4351 16 20.0131V19.9869C15.9978 18.6164 15.651 17.3268 15.0416 16.2Z" fill="#454545"/>
<path opacity="0.278088" fill-rule="evenodd" clip-rule="evenodd" d="M16 20C16 24.4183 12.4183 28 8 28C6.67142 28 5.41848 27.6761 4.31583 27.103L4.46943 26.7894L7.13797 26.5873L10.1875 26.9874L12.7478 25.0802L12.2204 22.7907L13.6576 19.7995L15.3415 19.2411L15.0417 16.2C15.653 17.3304 16 18.6247 16 20Z" fill="black"/>
<path opacity="0.387951" fill-rule="evenodd" clip-rule="evenodd" d="M7.55526 12.0121L8.14804 12.1539L7.96841 13.2571L5.16367 14.8561L2.59988 15.0993L1.21047 18.0781L0.0319824 19.2798C0.383059 15.3448 3.5833 12.2298 7.55526 12.0121Z" fill="white"/>
<path d="M18 24C22.4183 24 26 20.4183 26 16C26 11.5817 22.4183 8 18 8C13.5817 8 10 11.5817 10 16C10 20.4183 13.5817 24 18 24Z" fill="white"/>
<path fill-rule="evenodd" clip-rule="evenodd" d="M21.3741 13.4735L18.5238 15.0183L19.1115 18.3083L22.2204 18.7907L23.6576 15.7995L21.3741 13.4735Z" fill="#454545"/>
<path fill-rule="evenodd" clip-rule="evenodd" d="M17.9681 9.26576L21.0907 10.4218L22.7478 10.0732L21.0907 8.6244L18.148 8.15387L17.9681 9.26576Z" fill="#454545"/>
<path fill-rule="evenodd" clip-rule="evenodd" d="M23.887 21.417L24.3557 20.5182L22.7478 21.0802L20.1875 22.9874L20.5832 23.5738C21.8606 23.1382 22.9925 22.3886 23.887 21.417Z" fill="#454545"/>
<path fill-rule="evenodd" clip-rule="evenodd" d="M13.5694 19.1623L16.5155 20.5182L17.1379 22.5873L14.4694 22.7894L12.1887 20.5182L13.5694 19.1623Z" fill="#454545"/>
<path fill-rule="evenodd" clip-rule="evenodd" d="M11.2104 14.0782L12.9524 15.8295L15.4641 13.8407L15.1637 10.8561L12.5999 11.0993L11.2104 14.0782Z" fill="#454545"/>
<path opacity="0.377255" fill-rule="evenodd" clip-rule="evenodd" d="M26 16C26 20.4183 22.4183 24 18 24C14.661 24 11.7998 21.9544 10.6012 19.0481L12.1887 20.5182L13.5694 19.1623L16.5155 20.5182L19.1115 18.3083L18.5237 15.0183L21.3741 13.4735L21.0907 10.4218L22.7478 10.0732L21.0907 8.62442L21.1133 8.62839C23.985 9.84269 26 12.686 26 16Z" fill="black"/>
<path fill-rule="evenodd" clip-rule="evenodd" d="M25.0416 12.2L25.3414 15.2411L25.9023 17.2538C25.966 16.8495 25.9993 16.4351 26 16.0131V15.9869C25.9978 14.6164 25.651 13.3268 25.0416 12.2Z" fill="#454545"/>
<path opacity="0.278088" fill-rule="evenodd" clip-rule="evenodd" d="M26 16C26 20.4183 22.4183 24 18 24C16.6714 24 15.4185 23.6761 14.3158 23.103L14.4694 22.7894L17.138 22.5873L20.1875 22.9874L22.7478 21.0802L22.2204 18.7907L23.6576 15.7995L25.3415 15.2411L25.0417 12.2C25.653 13.3304 26 14.6247 26 16Z" fill="black"/>
<path opacity="0.387951" fill-rule="evenodd" clip-rule="evenodd" d="M17.5553 8.01215L18.148 8.15387L17.9684 9.25706L15.1637 10.8561L12.5999 11.0993L11.2105 14.0781L10.032 15.2798C10.3831 11.3448 13.5833 8.22979 17.5553 8.01215Z" fill="white"/>
</svg>
