<svg width="34" height="37" viewBox="0 0 34 37" fill="none" xmlns="http://www.w3.org/2000/svg">
<mask id="path-1-outside-1_49_939" maskUnits="userSpaceOnUse" x="0" y="0" width="34" height="37" fill="black">
<rect fill="white" width="34" height="37"/>
<path fill-rule="evenodd" clip-rule="evenodd" d="M26.9798 16.4266C29.9223 15.2449 32 12.3651 32 9C32 4.58172 28.4183 1 24 1C19.5817 1 16 4.58172 16 9C16 9.19279 16.0068 9.38399 16.0202 9.57336C14.1737 10.3149 12.6677 11.7252 11.8021 13.5045C10.93 13.1783 9.98584 13 9 13C4.58172 13 1 16.5817 1 21C1 25.4183 4.58172 29 9 29C12.1649 29 14.9005 27.1622 16.1979 24.4955C16.6568 24.6671 17.1356 24.7978 17.6299 24.8831C17.2243 25.841 17 26.8943 17 28C17 32.4183 20.5817 36 25 36C29.4183 36 33 32.4183 33 28C33 24.0489 30.1356 20.7667 26.3701 20.1169C26.7757 19.159 27 18.1057 27 17C27 16.8072 26.9932 16.616 26.9798 16.4266Z"/>
</mask>
<path d="M26.9798 16.4266L26.6071 15.4987C26.2041 15.6605 25.9516 16.064 25.9823 16.4973L26.9798 16.4266ZM16.0202 9.57336L16.3929 10.5013C16.7959 10.3395 17.0484 9.93596 17.0177 9.50272L16.0202 9.57336ZM11.8021 13.5045L11.4518 14.4411C11.9347 14.6217 12.4757 14.4056 12.7013 13.942L11.8021 13.5045ZM16.1979 24.4955L16.5482 23.5589C16.0653 23.3783 15.5243 23.5944 15.2987 24.058L16.1979 24.4955ZM17.6299 24.8831L18.5508 25.273C18.6698 24.992 18.6539 24.6719 18.5076 24.404C18.3614 24.1361 18.1008 23.9496 17.8 23.8977L17.6299 24.8831ZM26.3701 20.1169L25.4492 19.7269C25.3302 20.008 25.3461 20.3281 25.4924 20.596C25.6386 20.8639 25.8992 21.0504 26.2 21.1023L26.3701 20.1169ZM27.3524 17.3546C30.661 16.0259 33 12.7873 33 9H31C31 11.9429 29.1836 14.4639 26.6071 15.4987L27.3524 17.3546ZM33 9C33 4.02944 28.9706 0 24 0V2C27.866 2 31 5.13401 31 9H33ZM24 0C19.0294 0 15 4.02944 15 9H17C17 5.13401 20.134 2 24 2V0ZM15 9C15 9.21638 15.0077 9.43114 15.0227 9.644L17.0177 9.50272C17.006 9.33683 17 9.1692 17 9H15ZM15.6476 8.6454C13.5695 9.47992 11.8765 11.0657 10.9028 13.067L12.7013 13.942C13.4589 12.3847 14.7778 11.1499 16.3929 10.5013L15.6476 8.6454ZM9 14C9.86442 14 10.6901 14.1562 11.4518 14.4411L12.1524 12.5678C11.17 12.2004 10.1072 12 9 12V14ZM2 21C2 17.134 5.13401 14 9 14V12C4.02944 12 0 16.0294 0 21H2ZM9 28C5.13401 28 2 24.866 2 21H0C0 25.9706 4.02944 30 9 30V28ZM15.2987 24.058C14.1623 26.3937 11.7678 28 9 28V30C12.562 30 15.6387 27.9306 17.0972 24.933L15.2987 24.058ZM15.8476 25.4322C16.3643 25.6254 16.9034 25.7725 17.4598 25.8686L17.8 23.8977C17.3677 23.8231 16.9492 23.7089 16.5482 23.5589L15.8476 25.4322ZM16.7091 24.4932C16.2522 25.5722 16 26.7579 16 28H18C18 27.0307 18.1964 26.1098 18.5508 25.273L16.7091 24.4932ZM16 28C16 32.9706 20.0294 37 25 37V35C21.134 35 18 31.866 18 28H16ZM25 37C29.9706 37 34 32.9706 34 28H32C32 31.866 28.866 35 25 35V37ZM34 28C34 23.5539 30.7771 19.8626 26.5402 19.1314L26.2 21.1023C29.4941 21.6708 32 24.5438 32 28H34ZM27.2909 20.5068C27.7478 19.4278 28 18.2421 28 17H26C26 17.9693 25.8036 18.8902 25.4492 19.7269L27.2909 20.5068ZM28 17C28 16.7836 27.9923 16.5689 27.9773 16.356L25.9823 16.4973C25.994 16.6632 26 16.8308 26 17H28Z" fill="white" mask="url(#path-1-outside-1_49_939)"/>
</svg>
