<svg width="40" height="20" viewBox="0 0 40 20" fill="none" xmlns="http://www.w3.org/2000/svg">
<path d="M2 -5.31976e-06L2 17.9L38.46 17.9V-5.31976e-06" stroke="#C2C2C2" stroke-width="3.00523"/>
<line x1="3.5" y1="0.5" x2="37" y2="0.5" stroke="black"/>
<line x1="3.5" y1="15.5" x2="37" y2="15.5" stroke="black"/>
<line x1="3.5" y1="12.5" x2="37" y2="12.5" stroke="black"/>
<line x1="3.5" y1="9.5" x2="37" y2="9.5" stroke="black"/>
<line x1="3.5" y1="6.5" x2="37" y2="6.5" stroke="black"/>
<line x1="3.5" y1="3.5" x2="37" y2="3.5" stroke="black"/>
<line x1="5.25" y1="1" x2="5.25" y2="16.5" stroke="black"/>
<line x1="35.25" y1="1" x2="35.25" y2="16.5" stroke="black"/>
<line x1="32.25" y1="1" x2="32.25" y2="16.5" stroke="black"/>
<line x1="29.25" y1="1" x2="29.25" y2="16.5" stroke="black"/>
<line x1="26.25" y1="1" x2="26.25" y2="16.5" stroke="black"/>
<line x1="23.25" y1="1" x2="23.25" y2="16.5" stroke="black"/>
<line x1="20.25" y1="1" x2="20.25" y2="16.5" stroke="black"/>
<line x1="17.25" y1="1" x2="17.25" y2="16.5" stroke="black"/>
<line x1="14.25" y1="1" x2="14.25" y2="16.5" stroke="black"/>
<line x1="11.25" y1="1" x2="11.25" y2="16.5" stroke="black"/>
<line x1="8.25" y1="1" x2="8.25" y2="16.5" stroke="black"/>
</svg>
