<svg width="40" height="19" viewBox="0 0 40 19" fill="none" xmlns="http://www.w3.org/2000/svg">
<path fill-rule="evenodd" clip-rule="evenodd" d="M0.962683 4.81341L0.962683 7.70146H3.85073L3.85073 4.81341H0.962683ZM0 7.70146V8.66415V11.5522V12.5149V15.4029H0.962683L0.962683 12.5149H3.85073V15.4029H4.81341V12.5149H7.70146V15.4029H8.66415V12.5149H11.5522V15.4029H12.5149V12.5149H15.4029V15.4029H16.3656V12.5149H19.2537V15.4029H20.2163V12.5149H23.1044V15.4029H24.0671V12.5149H26.9551V15.4029H27.9178V12.5149H30.8059V15.4029H31.7685V12.5149H34.6566V15.4029H35.6193V12.5149H38.5073V15.4029H39.47V12.5149V11.5522V8.66415V7.70146V4.81341V3.85073V0.962683L39.47 0H38.5073H35.6193H34.6566H31.7685H30.8059H27.9178H26.9551H24.0671H23.1044H20.2163H19.2537H16.3656H15.4029H12.5149H11.5522H8.66415H7.70146H4.81341H3.85073H0.962682H0V0.962683V3.85073V4.81341V7.70146ZM38.5073 11.5522V8.66415H35.6193V11.5522H38.5073ZM34.6566 11.5522V8.66415H31.7685V11.5522H34.6566ZM30.8059 11.5522V8.66415H27.9178V11.5522H30.8059ZM26.9551 11.5522V8.66415H24.0671V11.5522H26.9551ZM23.1044 11.5522V8.66415H20.2163V11.5522H23.1044ZM19.2537 11.5522V8.66415H16.3656V11.5522H19.2537ZM15.4029 11.5522V8.66415H12.5149V11.5522H15.4029ZM11.5522 11.5522V8.66415H8.66415V11.5522H11.5522ZM7.70146 11.5522V8.66415H4.81341V11.5522H7.70146ZM3.85073 11.5522V8.66415H0.962683L0.962683 11.5522H3.85073ZM7.70146 7.70146H4.81341V4.81341H7.70146V7.70146ZM11.5522 7.70146H8.66415V4.81341H11.5522V7.70146ZM15.4029 7.70146H12.5149V4.81341H15.4029V7.70146ZM19.2537 7.70146H16.3656V4.81341H19.2537V7.70146ZM23.1044 7.70146H20.2163V4.81341H23.1044V7.70146ZM26.9551 7.70146H24.0671V4.81341H26.9551V7.70146ZM30.8059 7.70146H27.9178V4.81341H30.8059V7.70146ZM34.6566 7.70146H31.7685V4.81341H34.6566V7.70146ZM38.5073 7.70146H35.6193V4.81341H38.5073V7.70146ZM0.962682 3.85073H3.85073L3.85073 0.962683H0.962682L0.962682 3.85073ZM4.81341 3.85073H7.70146V0.962683H4.81341V3.85073ZM8.66415 3.85073H11.5522V0.962683H8.66415V3.85073ZM12.5149 3.85073H15.4029V0.962683H12.5149V3.85073ZM16.3656 3.85073H19.2537V0.962683H16.3656V3.85073ZM20.2163 3.85073H23.1044V0.962683H20.2163V3.85073ZM24.0671 3.85073H26.9551V0.962683H24.0671V3.85073ZM27.9178 3.85073H30.8059V0.962683H27.9178V3.85073ZM31.7685 3.85073H34.6566V0.962683H31.7685V3.85073ZM35.6193 3.85073H38.5073V0.962683H35.6193V3.85073Z" fill="#E2E2E2"/>
<path fill-rule="evenodd" clip-rule="evenodd" d="M0 15.3974L39.4652 15.3974V18.4026L0 18.4026L0 15.3974Z" fill="#C2C2C2"/>
</svg>
